# xmcd CD database file
#
# Track frame offsets:
#	150
#	49814
#	86990
#	112760
#	130509
#	161885
#	190767
#
# Disc length: 2935 seconds
#
# Revision: 0
# Processed by: cddbd v1.5.2PL0 Copyright (c) Steve Scherf et al.
# Submitted via: CDex 1.70beta2
#
DISCID=550b7507
DTITLE=Freddie Hubbard - First Light
DYEAR=1900
DGENRE=Jazz
TTITLE0=First Light
TTITLE1=Uncle Albert/Admiral Halsey
TTITLE2=Moment To Moment
TTITLE3=Yesterday's Dreams
TTITLE4=Lonely Town
TTITLE5=Night Wind
TTITLE6=Unknown
EXTD=
EXTT0=
EXTT1=
EXTT2=
EXTT3=
EXTT4=
EXTT5=
EXTT6=
PLAYORDER=
